<svg viewBox="0 0 200 200" width="100%" height="100%">
            <!-- Body -->
            <path d="M 60 180 C 60 145, 140 145, 140 180 Z" fill="#ff922b" stroke="#d9480f" stroke-width="3" />
            <!-- Ears -->
            <polygon points="50,70 80,40 85,85" fill="#ff922b" stroke="#d9480f" stroke-width="3" />
            <polygon points="58,68 78,48 81,78" fill="#ffc078" />
            <polygon points="150,70 120,40 115,85" fill="#ff922b" stroke="#d9480f" stroke-width="3" />
            <polygon points="142,68 122,48 119,78" fill="#ffc078" />
            <!-- Head -->
            <circle cx="100" cy="100" r="50" fill="#ff922b" stroke="#d9480f" stroke-width="3" />
            <!-- Eyes -->
            <ellipse cx="80" cy="95" rx="6" ry="8" fill="#212529" />
            <circle cx="78" cy="92" r="2.5" fill="#fff" />
            <ellipse cx="120" cy="95" rx="6" ry="8" fill="#212529" />
            <circle cx="118" cy="92" r="2.5" fill="#fff" />
            <!-- Snout & Nose -->
            <polygon points="96,108 104,108 100,113" fill="#e03131" />
            <path d="M 94 116 Q 100 122 106 116" fill="none" stroke="#212529" stroke-width="2" />
            <!-- Whiskers -->
            <line x1="72" y1="112" x2="45" y2="108" stroke="#495057" stroke-width="2" />
            <line x1="72" y1="117" x2="42" y2="119" stroke="#495057" stroke-width="2" />
            <line x1="128" y1="112" x2="155" y2="108" stroke="#495057" stroke-width="2" />
            <line x1="128" y1="117" x2="158" y2="119" stroke="#495057" stroke-width="2" />
        </svg>