<svg viewBox="0 0 200 200" width="100%" height="100%">
            <!-- Body -->
            <path d="M 60 180 C 60 145, 140 145, 140 180 Z" fill="#e8590c" stroke="#d9480f" stroke-width="3" />
            <path d="M 85 155 Q 100 175 115 155 Z" fill="#f8f9fa" />
            <!-- Ears -->
            <polygon points="50,70 70,30 90,75" fill="#e8590c" stroke="#d9480f" stroke-width="3" />
            <polygon points="58,68 70,40 82,71" fill="#f8f9fa" />
            <polygon points="150,70 130,30 110,75" fill="#e8590c" stroke="#d9480f" stroke-width="3" />
            <polygon points="142,68 130,40 118,71" fill="#f8f9fa" />
            <!-- Head -->
            <circle cx="100" cy="100" r="50" fill="#e8590c" stroke="#d9480f" stroke-width="3" />
            <!-- Cheeks (White patches) -->
            <path d="M 53 115 C 65 130, 85 130, 95 118 L 100 100 L 50 100 Z" fill="#f8f9fa" />
            <path d="M 147 115 C 135 130, 115 130, 105 118 L 100 100 L 150 100 Z" fill="#f8f9fa" />
            <!-- Eyes -->
            <circle cx="78" cy="95" r="6" fill="#212529" />
            <circle cx="76" cy="92" r="2.5" fill="#fff" />
            <circle cx="122" cy="95" r="6" fill="#212529" />
            <circle cx="120" cy="92" r="2.5" fill="#fff" />
            <!-- Nose -->
            <polygon points="95,112 105,112 100,118" fill="#212529" />
            <!-- Smile -->
            <path d="M 94 122 Q 100 126 106 122" fill="none" stroke="#212529" stroke-width="1.5" />
        </svg>