<svg viewBox="0 0 200 200" width="100%" height="100%">
            <!-- Body -->
            <path d="M 60 180 L 140 180 L 130 145 L 70 145 Z" fill="#495057" stroke="#343a40" stroke-width="3" />
            <rect x="80" y="152" width="40" height="20" rx="3" fill="#e9ecef" stroke="#ced4da" stroke-width="1.5" />
            <!-- Neck -->
            <rect x="92" y="132" width="16" height="15" fill="#868e96" stroke="#495057" stroke-width="2" />
            <!-- Head -->
            <rect x="55" y="65" width="90" height="70" rx="10" fill="#adb5bd" stroke="#495057" stroke-width="3" />
            <!-- Antenna -->
            <line x1="100" y1="65" x2="100" y2="45" stroke="#495057" stroke-width="3" />
            <circle cx="100" cy="45" r="6" fill="#f03e3e" />
            <!-- Eyes (Glowing cyan) -->
            <rect x="70" y="82" width="22" height="15" rx="3" fill="#15aabf" stroke="#0b7285" stroke-width="1.5" />
            <circle cx="81" cy="89" r="3" fill="#fff" />
            <rect x="108" y="82" width="22" height="15" rx="3" fill="#15aabf" stroke="#0b7285" stroke-width="1.5" />
            <circle cx="119" cy="89" r="3" fill="#fff" />
            <!-- Mouth (Digital grille) -->
            <rect x="75" y="112" width="50" height="10" rx="2" fill="#212529" />
            <line x1="85" y1="112" x2="85" y2="122" stroke="#495057" stroke-width="1.5" />
            <line x1="95" y1="112" x2="95" y2="122" stroke="#495057" stroke-width="1.5" />
            <line x1="105" y1="112" x2="105" y2="122" stroke="#495057" stroke-width="1.5" />
            <line x1="115" y1="112" x2="115" y2="122" stroke="#495057" stroke-width="1.5" />
            <!-- Ears (Bolts) -->
            <rect x="47" y="87" width="8" height="20" rx="2" fill="#868e96" stroke="#495057" stroke-width="1.5" />
            <rect x="145" y="87" width="8" height="20" rx="2" fill="#868e96" stroke="#495057" stroke-width="1.5" />
        </svg>